<?xml version="1.0" standalone="no"?>
<!DOCTYPE svg PUBLIC "-//W3C//DTD SVG 20010904//EN"
 "http://www.w3.org/TR/2001/REC-SVG-20010904/DTD/svg10.dtd">
<svg version="1.0" xmlns="http://www.w3.org/2000/svg"
 width="200.000000pt" height="200.000000pt" viewBox="0 0 200.000000 200.000000"
 preserveAspectRatio="xMidYMid meet">
<metadata>
Created by potrace 1.14, written by Peter Selinger 2001-2017
</metadata>
<g transform="translate(0.000000,200.000000) scale(0.100000,-0.100000)"
fill="#000000" stroke="none">
<path d="M870 1888 c-240 -28 -425 -115 -586 -276 -83 -84 -125 -139 -154
-205 -134 -304 14 -654 320 -757 66 -22 253 -39 262 -24 3 5 9 38 12 74 23
227 156 406 368 491 66 27 244 36 328 16 202 -48 360 -209 410 -417 20 -84 25
-154 14 -183 -5 -13 -16 -10 -69 14 -102 48 -213 43 -445 -18 -111 -30 -156
-37 -250 -39 -63 -2 -137 1 -165 7 -68 13 -175 26 -175 21 0 -22 37 -137 60
-186 37 -77 150 -195 222 -232 173 -88 342 -90 517 -8 130 60 248 205 325 398
52 129 60 174 59 361 -1 199 -16 274 -87 420 -64 130 -175 268 -276 344 -19
14 -37 29 -40 32 -11 14 -180 100 -232 118 -128 44 -295 64 -418 49z"/>
</g>
</svg>
